Coordinates
version=1
nRows=49
nColumns=12
inDegrees=yes

Units are S.I. units (second, meters, Newtons, ...)
Angles are in degrees

endheader
time	SC_y	SC_z	SC_x	AC_y	AC_z	AC_x	GH_y	GH_z	GH_yy	EL_x	PS_y
       0.0              -18.74          -2.01          14.94          39.48          7.104         -10.31         -137.0          36.67          95.48          106.5           68.0
   0.02168              -18.74         -2.007          14.94          39.48          7.103         -10.31         -137.0          36.66          95.46          106.5           68.0
   0.04336              -18.75         -2.003          14.95          39.48          7.101         -10.31         -137.0          36.66          95.44          106.5           68.0
   0.06504              -18.75           -2.0          14.95          39.48            7.1         -10.31         -136.9          36.65          95.41          106.5           68.0
   0.08672              -18.76         -1.996          14.95          39.48          7.098         -10.31         -136.9          36.64          95.39          106.4           68.0
    0.1084              -18.77         -1.991          14.95          39.48          7.096         -10.31         -136.9          36.63          95.36          106.4          68.01
    0.1301              -18.77         -1.987          14.95          39.49          7.094          -10.3         -136.8          36.62          95.33          106.4          68.01
    0.1518              -18.78         -1.982          14.95          39.49          7.091          -10.3         -136.8          36.61           95.3          106.4          68.01
    0.1734              -18.79         -1.977          14.96          39.49          7.089          -10.3         -136.7           36.6          95.26          106.4          68.01
    0.1951              -18.79         -1.972          14.96          39.49          7.087          -10.3         -136.7          36.59          95.23          106.3          68.01
    0.2168               -18.8         -1.966          14.96          39.49          7.084         -10.29         -136.6          36.58          95.19          106.3          68.01
    0.2385              -18.81         -1.959          14.96          39.49          7.081         -10.29         -136.6          36.57          95.14          106.3          68.02
    0.2602              -18.82         -1.953          14.96          39.49          7.078         -10.29         -136.5          36.55           95.1          106.3          68.02
    0.2818              -18.83         -1.945          14.97          39.49          7.074         -10.28         -136.4          36.54          95.05          106.2          68.02
    0.3035              -18.84         -1.937          14.97          39.49          7.071         -10.28         -136.4          36.52          94.99          106.2          68.02
    0.3252              -18.85         -1.929          14.97          39.49          7.067         -10.28         -136.3           36.5          94.93          106.2          68.03
    0.3469              -18.87         -1.919          14.98          39.49          7.062         -10.27         -136.2          36.49          94.87          106.1          68.03
    0.3685              -18.88         -1.909          14.98          39.49          7.057         -10.27         -136.1          36.46           94.8          106.1          68.03
    0.3902               -18.9         -1.898          14.99           39.5          7.052         -10.26         -136.0          36.44          94.72          106.1          68.03
    0.4119              -18.91         -1.886          14.99           39.5          7.046         -10.26         -135.9          36.42          94.64          106.0          68.04
    0.4336              -18.93         -1.872           15.0           39.5           7.04         -10.25         -135.8          36.39          94.55          106.0          68.04
    0.4553              -18.95         -1.857           15.0           39.5          7.033         -10.24         -135.6          36.36          94.45          105.9          68.05
    0.4769              -18.98         -1.841          15.01           39.5          7.026         -10.24         -135.5          36.33          94.34          105.8          68.05
    0.4986               -19.0         -1.823          15.01           39.5          7.017         -10.23         -135.3          36.29          94.22          105.8          68.06
    0.5203              -19.03         -1.803          15.02          39.51          7.008         -10.22         -135.1          36.25          94.08          105.7          68.06
     0.542              -19.06          -1.78          15.03          39.51          6.997         -10.21         -134.9           36.2          93.93          105.6          68.07
    0.5637               -19.1         -1.755          15.04          39.51          6.986          -10.2         -134.7          36.15          93.76          105.5          68.08
    0.5853              -19.14         -1.727          15.05          39.51          6.973         -10.18         -134.4          36.09          93.57          105.4          68.09
     0.607              -19.18         -1.695          15.06          39.52          6.958         -10.17         -134.1          36.03          93.35          105.3           68.1
    0.6287              -19.23         -1.659          15.08          39.52          6.941         -10.15         -133.8          35.95           93.1          105.1          68.11
    0.6504              -19.29         -1.617          15.09          39.53          6.921         -10.13         -133.4          35.87          92.82          105.0          68.12
    0.6721              -19.36          -1.57          15.11          39.53          6.899         -10.11         -133.0          35.77           92.5          104.8          68.14
    0.6937              -19.43         -1.515          15.13          39.54          6.874         -10.09         -132.5          35.66          92.13          104.6          68.16
    0.7154              -19.52         -1.451          15.16          39.54          6.844         -10.06         -131.9          35.53          91.69          104.3          68.18
    0.7371              -19.63         -1.376          15.18          39.55          6.809         -10.02         -131.2          35.38          91.19          104.0           68.2
    0.7588              -19.75         -1.288          15.22          39.56          6.768         -9.981         -130.4           35.2          90.59          103.7          68.23
    0.7805               -19.9         -1.184          15.26          39.57           6.72         -9.932         -129.4          34.98          89.88          103.3          68.26
    0.8021              -20.07         -1.058          15.31          39.59          6.661         -9.874         -128.3          34.73          89.03          102.8           68.3
    0.8238              -20.29        -0.9067          15.36           39.6          6.591         -9.804         -126.9          34.42           88.0          102.2          68.35
    0.8455              -20.55        -0.7214          15.43          39.62          6.504         -9.719         -125.2          34.04          86.75          101.5          68.41
    0.8672              -20.87        -0.4928          15.52          39.65          6.398         -9.613         -123.1          33.57           85.2          100.6          68.48
    0.8889              -21.27        -0.2076          15.63          39.68          6.265         -9.482         -120.5          32.99          83.26          99.55          68.57
    0.9105              -21.77         0.1515          15.77          39.72          6.098         -9.316         -117.2          32.25          80.83          98.17          68.69
    0.9322              -22.41         0.6081          15.94          39.77          5.885         -9.105         -113.0          31.32          77.73          96.41          68.83
    0.9539              -23.23          1.193          16.16          39.83          5.613         -8.835         -107.6          30.13          73.77          94.16          69.02
    0.9756              -24.28          1.942          16.45          39.92          5.264         -8.489         -100.7           28.6          68.68          91.27          69.25
    0.9973              -25.62            2.9          16.81          40.02          4.818         -8.046          -91.9          26.64          62.19          87.58          69.56
     1.019              -27.31          4.105          17.27          40.15          4.257          -7.49         -80.83          24.18          54.02          82.94          69.94
     1.041              -29.37          5.573          17.83          40.31          3.574         -6.812         -67.34          21.18          44.07          77.28          70.41
